<svg id="Logo" xmlns="http://www.w3.org/2000/svg" viewBox="0 0 166.72 68"><defs><style>.cls-1{fill:#e30613;}.cls-2{fill:#fdc330;}.cls-3{fill:#00627d;}</style></defs><g id="logo-feltrinelli"><path class="cls-1" d="M167.31,48.22a.65.65,0,1,0,1.29,0,.65.65,0,1,0-1.29,0m-.84,2.67H167c.36,0,.52,0,.52.31v3.2c0,.42-.16.53-.57.53h-.36v.43h2.81v-.43h-.3c-.43,0-.59-.13-.59-.49V50.36l-2,.1ZM163.4,48h.49c.36,0,.52,0,.52.3v6.19c0,.36-.15.49-.58.49h-.3v.43h2.76v-.43H166c-.43,0-.58-.13-.58-.49v-7l-2,.11Zm-2.86,0H161c.36,0,.52,0,.52.3v6.19c0,.36-.15.49-.58.49h-.3v.43h2.76v-.43h-.3c-.43,0-.59-.13-.59-.49v-7l-2,.11ZM157,52.5c.09-1.17.47-1.88,1.32-1.88.69,0,1.14.56,1.14,1.47,0,.35-.11.41-.55.41Zm3.56.44c-.08-1.6-.88-2.75-2.14-2.75-1.54,0-2.52,1-2.52,2.84a2.36,2.36,0,0,0,2.47,2.5,2.24,2.24,0,0,0,2.19-1.5l-.37-.21A1.74,1.74,0,0,1,158.57,55c-.85,0-1.55-.65-1.55-1.9v-.15Zm-10.75-2h.36c.36,0,.52,0,.52.31v3.24c0,.36-.15.49-.58.49h-.3v.43h2.76v-.43h-.3c-.43,0-.59-.13-.59-.49V52.59c0-1.12.62-1.75,1.34-1.75a1,1,0,0,1,1,1.11v2.49c0,.36-.15.49-.58.49h-.31v.43H156v-.43h-.3c-.44,0-.59-.13-.59-.49V52.13a1.75,1.75,0,0,0-1.71-1.94,1.78,1.78,0,0,0-1.62,1.08h0v-.91l-1.87.1Zm-2.25-2.67a.65.65,0,1,0,.65-.65.66.66,0,0,0-.65.65m-.84,2.67h.5c.35,0,.51,0,.51.31v3.2c0,.42-.16.53-.57.53h-.35v.43h2.8v-.43h-.3c-.43,0-.58-.13-.58-.49V50.36l-2,.1Zm-4.25,0H143c.36,0,.52,0,.52.31v3.2c0,.42-.16.53-.57.53h-.36v.43h2.94v-.43h-.39c-.44,0-.63-.06-.63-.34V53.51c0-.89.36-2.74,1.48-2.83h0v0a.53.53,0,0,0-.25.49.57.57,0,0,0,.59.58A.65.65,0,0,0,147,51a.83.83,0,0,0-.86-.85,1.76,1.76,0,0,0-1.6,1.45h0V50.36l-2,.1Zm-3.81,0h.88v3.52a1.21,1.21,0,0,0,1.29,1.17c1.16,0,1.63-.76,1.64-2.11h-.43c0,.54-.15,1.46-.84,1.46-.5,0-.67-.3-.67-.83V50.84h1.61v-.48h-1.61V48.17h-.43c-.07.91-.29,2.11-1.44,2.19ZM136.05,48h.49c.36,0,.52,0,.52.3v6.19c0,.36-.15.49-.58.49h-.3v.43h2.76v-.43h-.3c-.43,0-.59-.13-.59-.49v-7l-2,.11Zm-3.52,4.55c.09-1.17.47-1.88,1.32-1.88s1.14.56,1.14,1.47c0,.35-.11.41-.55.41Zm3.56.44c-.08-1.6-.88-2.75-2.14-2.75-1.54,0-2.52,1-2.52,2.84a2.36,2.36,0,0,0,2.47,2.5,2.24,2.24,0,0,0,2.19-1.5l-.37-.21A1.74,1.74,0,0,1,134.08,55c-.85,0-1.55-.65-1.55-1.9v-.15Zm-9.26,1.39c0,.43-.19.55-.61.55h-.59v.48h3.72v-.48h-.54c-.68,0-.81-.17-.81-.48V51.54h.6c.84,0,1.23.62,1.23,1.58h.48V49.58h-.48c-.07,1.07-.5,1.48-1.44,1.48H128V48.48c0-.38.15-.42.8-.42,2,0,2.57.09,3,2.3h.43l-.15-2.79h-6.42v.49h.59c.42,0,.61.11.61.55Z" transform="translate(-2.64)"/><path class="cls-1" d="M119.47,49.23a4.32,4.32,0,0,0,.19-.68c0-.25-.23-.27-.42-.27h-.17c-.08,0-.13,0-.13-.12s.21-.14.32-.14a2.18,2.18,0,0,0,1.25-.42s.07,0,.1,0,.09,0,.09.1a2,2,0,0,1-.07.26l-1.94,6.31a1.51,1.51,0,0,0-.11.43c0,.09,0,.19.15.19s.82-.76,1-1c0-.06.08-.15.16-.15s.06,0,.06.08c0,.2-.35.64-.46.77-.25.32-.87,1-1.33,1-.28,0-.34-.17-.34-.42a3.42,3.42,0,0,1,.2-1Z" transform="translate(-2.64)"/><path class="cls-1" d="M123.49,50.61a3,3,0,0,0-2,1.36,4.75,4.75,0,0,0-1,2.31c0,.31.16.66.51.66.66,0,1.63-1.16,2-1.64a6.07,6.07,0,0,0,1.2-2.12c0-.41-.33-.57-.7-.57m.89.08c.1-.34.09-.4.45-.4.07,0,.37,0,.37.1a1.19,1.19,0,0,1,0,.22L124,54.29a1.45,1.45,0,0,0-.08.36c0,.09,0,.16.11.16.27,0,.78-.68.91-.89,0-.05.11-.2.19-.2s.07.05.07.09a2.84,2.84,0,0,1-.57.91,2.41,2.41,0,0,1-1.3.8.27.27,0,0,1-.29-.31,2,2,0,0,1,.12-.61l.66-2.16c-.61,1-2.07,3.08-3.35,3.08-.61,0-.86-.59-.86-1.12a4.41,4.41,0,0,1,1.25-2.68,3.88,3.88,0,0,1,2.63-1.32.94.94,0,0,1,.84.38Z" transform="translate(-2.64)"/><polygon class="cls-1" points="112.5 42.75 99.88 55.37 112.5 68 112.5 63.27 108.56 59.31 112.5 55.37 112.5 50.64 106.19 56.95 104.61 55.37 112.5 47.48 112.5 42.75"/></g><g id="logo-ibs"><rect class="cls-2" x="108.04" y="6.22" width="4.27" height="23.07"/><rect class="cls-2" x="108.04" y="0.08" width="4.27" height="4.11"/><path class="cls-2" d="M126.82,30.23a8.11,8.11,0,0,1-5.72-1.9c-1.21-1.25-1.83-3.27-1.83-6V10.09h-2.49V6.2h2.49V.08h4.27V6.2H132v3.89h-8.44V20.66c0,1.14,0,2.05.08,2.68a4.15,4.15,0,0,0,.51,1.7,2.34,2.34,0,0,0,1.07,1,5.91,5.91,0,0,0,2.59.33,12.68,12.68,0,0,0,4.16-.9v3.82s-2.07.6-2.9.72a15.83,15.83,0,0,1-2.23.18" transform="translate(-2.64)"/><rect class="cls-2" x="101.7" y="33.41" width="27.65" height="3.17"/><rect class="cls-3" y="11.78" width="11.08" height="43.61"/><rect class="cls-3" width="11.08" height="7.94"/><path class="cls-3" d="M65.58,55.39H93A18,18,0,0,0,95.32,54a13.08,13.08,0,0,0,5.85-11,11.65,11.65,0,0,0-3.4-8.69,18.47,18.47,0,0,0-9.13-4.43c-1.2-.26-2.71-.55-4.48-.86s-3.3-.61-4.68-.91a12.26,12.26,0,0,1-4.84-1.86h0a3.23,3.23,0,0,1-1.12-2.74c0-1.42.7-2.27,2-3.11a11.82,11.82,0,0,1,6.27-1.64,29.75,29.75,0,0,1,9.72,1.9c2.64.88,7.87,3.28,7.87,3.28V13.55l-1-.46a33.82,33.82,0,0,0-7.37-2.43,39.63,39.63,0,0,0-8.7-1,29.81,29.81,0,0,0-8.46,1.13A19.09,19.09,0,0,0,67.47,14a14,14,0,0,0-4,4.77,12.73,12.73,0,0,0-1.33,5.7A12.09,12.09,0,0,0,65,32.62c1.91,2.21,5.08,3.88,9.45,5,1.47.37,3.13.72,4.93,1s3.15.57,4.22.8c3.45.72,4.73,1.47,5.18,1.85a3.23,3.23,0,0,1,1,2.64,4.09,4.09,0,0,1-2,3.44,12.5,12.5,0,0,1-7.13,1.91A30,30,0,0,1,70.13,47a72.33,72.33,0,0,1-8.2-4V53.83l1,.45c.81.38,1.72.75,2.69,1.11" transform="translate(-2.64)"/><path class="cls-3" d="M28.62,23.92a27,27,0,0,1,5.2-2.78,16.37,16.37,0,0,1,6-1.23c3.34,0,5.67,1,7.11,3.19,1.57,2.34,2.37,5.93,2.37,10.66,0,5.12-1,8.88-3.12,11.16s-4.84,3.34-8.54,3.34a21.52,21.52,0,0,1-4.86-.49,29.3,29.3,0,0,1-4.19-1.38ZM27.47,55.39H47.68a21.59,21.59,0,0,0,6.64-4.62A21.93,21.93,0,0,0,59,43.36a26.8,26.8,0,0,0,1.7-9.76c0-7.09-1.68-12.7-5-16.68s-8.12-6.19-14-6.19a18.58,18.58,0,0,0-8.24,1.8,20,20,0,0,0-4.84,2.93V0H17.54V55.39Z" transform="translate(-2.64)"/><rect class="cls-2" x="101.7" y="25.19" width="4.27" height="4.11"/></g></svg>